<?xml version="1.0" encoding="UTF-8"?>
<svg width="158px" height="140px" viewBox="0 0 158 140" version="1.1" xmlns="http://www.w3.org/2000/svg" xmlns:xlink="http://www.w3.org/1999/xlink">
    <!-- Generator: Sketch 48 (47235) - http://www.bohemiancoding.com/sketch -->
    <title>add_pictures_158</title>
    <desc>Created with Sketch.</desc>
    <defs></defs>
    <g id="认证2-交互说明" stroke="none" stroke-width="1" fill="none" fill-rule="evenodd" transform="translate(-30.000000, -1194.000000)">
        <g id="表单/输入/图片添加-copy-2" transform="translate(0.000000, 1106.000000)">
            <g id="add_pictures_158" transform="translate(30.000000, 88.000000)">
                <rect id="Rectangle-52" stroke="#CCCCCC" x="0.5" y="0.5" width="157" height="157"></rect>
                <path d="M42.2241379,81.7241379 C41.2285676,80.9068966 40.862069,80.5420918 40.862069,80.362069 L40.862069,77.637931 C40.862069,77.4633435 41.2247963,77.0931034 42.2241379,76.2758621 L76.2758621,76.2758621 L76.2758621,42.2241379 C77.0931034,41.2285676 77.4579082,40.862069 77.637931,40.862069 L80.362069,40.862069 C80.5366565,40.862069 80.9068966,41.2247963 81.7241379,42.2241379 L81.7241379,76.2758621 L115.775862,76.2758621 C116.771432,77.0931034 117.137931,77.4579082 117.137931,77.637931 L117.137931,80.362069 C117.137931,80.5366565 116.775204,80.9068966 115.775862,81.7241379 L81.7241379,81.7241379 L81.7241379,115.775862 C80.9068966,116.771432 80.5420918,117.137931 80.362069,117.137931 L77.637931,117.137931 C77.4633435,117.137931 77.0931034,116.775204 76.2758621,115.775862 L76.2758621,81.7241379 L42.2241379,81.7241379 Z" id="Fill-57" fill="#CCCCCC"></path>
            </g>
        </g>
    </g>
</svg>