<?xml version="1.0" encoding="UTF-8"?>
<svg width="186px" height="186px" viewBox="0 0 186 186" version="1.1" xmlns="http://www.w3.org/2000/svg" xmlns:xlink="http://www.w3.org/1999/xlink">
    <!-- Generator: Sketch 48 (47235) - http://www.bohemiancoding.com/sketch -->
    <title>binding_success_186</title>
    <desc>Created with Sketch.</desc>
    <defs></defs>
    <g id="绑定成功" stroke="none" stroke-width="1" fill="none" fill-rule="evenodd" transform="translate(-282.000000, -228.000000)">
        <g id="binding_success_186" transform="translate(282.000000, 228.000000)" fill="#10AEFF">
            <path d="M93,186 C41.6375183,186 0,144.362482 0,93 C0,41.6375183 41.6375183,0 93,0 C144.362482,0 186,41.6375183 186,93 C186,144.362482 144.362482,186 93,186 Z M117.205476,44.0100668 L67.4874054,44.0100668 C61.7044089,44.0100668 57.0204433,48.6282173 57.0204433,54.3184386 L57.0204433,131.631227 C57.0204433,137.326603 61.7044089,141.939599 67.4874054,141.939599 L117.205476,141.939599 C122.988472,141.939599 127.672438,137.326603 127.672438,131.631227 L127.672438,54.3184386 C127.672438,48.6282173 122.988473,44.0100668 117.205476,44.0100668 Z M101.505033,136.785413 L83.1878488,136.785413 L83.1878488,131.631227 L101.505033,131.631227 L101.505033,136.785413 Z M122.438957,121.322856 C122.438957,124.167966 120.094357,126.477042 117.205476,126.477042 L67.4874054,126.477042 C64.5985239,126.477042 62.2539243,124.167966 62.2539243,121.322856 L62.2539244,54.3184386 C62.2539244,51.473328 64.598524,49.1642526 67.4874056,49.1642526 L117.205476,49.1642526 C120.094358,49.1642526 122.438957,51.473328 122.438957,54.3184386 L122.438957,121.322856 Z M90.1619063,73.1164795 C89.4762266,74.3885383 89.9792102,75.9417066 91.2843934,76.5844664 C92.5974357,77.2272263 94.2094661,76.7154863 94.897082,75.4444369 L96.6799629,72.1428047 C97.9928913,69.7173675 100.733332,69.6763117 102.875682,70.7054006 C104.015823,71.2590939 104.85094,72.2050615 105.245263,73.3727981 C105.624095,74.5395252 105.511334,75.7904953 104.91518,76.8951898 L99.2962521,87.2932055 C96.7285983,92.0455905 94.423143,90.9342778 93.4402976,90.4570874 C92.1215604,89.8219554 90.5153388,90.3394163 89.8336457,91.6171961 C89.1519525,92.8958734 89.6723629,94.4424232 90.977546,95.0793501 C93.2344798,96.1706959 95.4582686,96.3580273 97.5151935,95.7010212 C100.034326,94.8996465 102.293196,92.8337287 104.023683,89.6211631 L109.634865,79.2240448 C110.899158,76.8884594 111.14393,74.2286897 110.330113,71.7487358 C109.516295,69.2678844 107.735351,67.2574929 105.323057,66.0906537 C100.104261,63.5695317 94.4697283,65.1304399 91.9447872,69.8149594 L90.1619063,73.1164795 Z M80.9866703,111.217896 C83.4708351,112.419173 86.2560384,112.52428 88.7400893,111.736255 C91.2223178,110.940489 93.417062,109.247663 94.7143861,106.843315 L96.1457708,104.191173 C96.835323,102.920012 96.3302892,101.364936 95.0232836,100.723186 C93.7200367,100.080538 92.1001472,100.592166 91.418454,101.864225 L89.9870694,104.509637 C88.7460121,106.803044 85.8073852,107.742281 83.4416767,106.595634 C82.2997126,106.049456 81.464482,105.102591 81.0799547,103.935864 C80.6993,102.769025 80.8118334,101.517943 81.4100376,100.419081 L86.6774693,90.6704436 C87.7710257,88.6534338 90.0219228,85.4760909 92.8849199,86.8514625 C94.2017209,87.4864823 95.8098788,86.9681239 96.4896356,85.6903442 C97.1635835,84.4116671 96.6449956,82.8642198 95.3340035,82.2290877 C90.4726262,79.8802658 85.2090671,82.2769863 81.9422935,88.3367652 L76.6749757,98.0834957 C75.4125052,100.425812 75.1657972,103.078851 75.9797285,105.558917 C76.7913818,108.045489 78.5743766,110.04915 80.9866703,111.217896 Z" id="绑定成功（186*186）"></path>
        </g>
    </g>
</svg>