<?xml version="1.0" encoding="UTF-8"?>
<svg width="40px" height="40px" viewBox="0 0 40 40" version="1.1" xmlns="http://www.w3.org/2000/svg" xmlns:xlink="http://www.w3.org/1999/xlink">
    <!-- Generator: Sketch 48 (47235) - http://www.bohemiancoding.com/sketch -->
    <title>calendar_40</title>
    <desc>Created with Sketch.</desc>
    <defs></defs>
    <g id="表单/完成/日历" stroke="none" stroke-width="1" fill="none" fill-rule="evenodd" transform="translate(-670.000000, -24.000000)">
        <g fill="#888888" fill-rule="nonzero" id="calendar_40">
            <g transform="translate(670.000000, 24.000000)">
                <path d="M3,7 L3,36 C3,36.5522847 3.44771525,37 4,37 L36,37 C36.5522847,37 37,36.5522847 37,36 L37,7 C37,6.44771525 36.5522847,6 36,6 L4,6 C3.44771525,6 3,6.44771525 3,7 Z M40,5 L40,38 C40,39.1045695 39.1045695,40 38,40 L2,40 C0.8954305,40 -7.64178016e-14,39.1045695 -8.04772915e-14,38 L-8.04772915e-14,5 C-8.06125622e-14,3.8954305 0.8954305,3 2,3 L38,3 C39.1045695,3 40,3.8954305 40,5 Z M3,11 L3,14 L37,14 L37,11 L3,11 Z M11.5,2.35922393e-16 C12.3284271,8.37427987e-17 13,0.671572875 13,1.5 L13,7.5 C13,8.32842712 12.3284271,9 11.5,9 C10.6715729,9 10,8.32842712 10,7.5 L10,1.5 C10,0.671572875 10.6715729,3.88101987e-16 11.5,2.35922393e-16 Z M8.5,19 L12.5,19 C13.3284271,19 14,19.6715729 14,20.5 C14,21.3284271 13.3284271,22 12.5,22 L8.5,22 C7.67157288,22 7,21.3284271 7,20.5 C7,19.6715729 7.67157288,19 8.5,19 Z M18,19 L22,19 C22.8284271,19 23.5,19.6715729 23.5,20.5 C23.5,21.3284271 22.8284271,22 22,22 L18,22 C17.1715729,22 16.5,21.3284271 16.5,20.5 C16.5,19.6715729 17.1715729,19 18,19 Z M8.5,27 L12.5,27 C13.3284271,27 14,27.6715729 14,28.5 C14,29.3284271 13.3284271,30 12.5,30 L8.5,30 C7.67157288,30 7,29.3284271 7,28.5 C7,27.6715729 7.67157288,27 8.5,27 Z M18,27 L22,27 C22.8284271,27 23.5,27.6715729 23.5,28.5 C23.5,29.3284271 22.8284271,30 22,30 L18,30 C17.1715729,30 16.5,29.3284271 16.5,28.5 C16.5,27.6715729 17.1715729,27 18,27 Z M27.5,19 L31.5,19 C32.3284271,19 33,19.6715729 33,20.5 C33,21.3284271 32.3284271,22 31.5,22 L27.5,22 C26.6715729,22 26,21.3284271 26,20.5 C26,19.6715729 26.6715729,19 27.5,19 Z M28.5,2.35922393e-16 L28.5,2.35922393e-16 C29.3284271,8.37427987e-17 30,0.671572875 30,1.5 L30,7.5 C30,8.32842712 29.3284271,9 28.5,9 L28.5,9 C27.6715729,9 27,8.32842712 27,7.5 L27,1.5 C27,0.671572875 27.6715729,3.88101987e-16 28.5,2.35922393e-16 Z" id="日历（40*40）"></path>
            </g>
        </g>
    </g>
</svg>