<?xml version="1.0" encoding="UTF-8"?>
<svg width="24px" height="20px" viewBox="0 0 24 20" version="1.1" xmlns="http://www.w3.org/2000/svg" xmlns:xlink="http://www.w3.org/1999/xlink">
    <!-- Generator: Sketch 48 (47235) - http://www.bohemiancoding.com/sketch -->
    <title>clicks_24</title>
    <desc>Created with Sketch.</desc>
    <defs></defs>
    <g id="概览（已认证已开店）" stroke="none" stroke-width="1" fill="none" fill-rule="evenodd" transform="translate(-30.000000, -865.000000)">
        <g id="Stacked-Group-2" transform="translate(0.000000, 554.000000)" fill="#B2B2B2" fill-rule="nonzero">
            <g id="Group-Copy-19">
                <g id="clicks_24" transform="translate(30.000000, 309.000000)">
                    <path d="M12,20 C14.448141,20 16.973535,18.7631699 19.0864794,16.695541 C20.8382127,14.9813765 22,12.9186561 22,12 C22,11.0813439 20.8382127,9.01862352 19.0864794,7.30445901 C16.973535,5.23683007 14.448141,4 12,4 C9.55185905,4 7.02646502,5.23683007 4.91352059,7.30445901 C3.16178734,9.01862352 2,11.0813439 2,12 C2,12.9186561 3.16178734,14.9813765 4.91352059,16.695541 C7.02646502,18.7631699 9.55185905,20 12,20 Z M12,22 C5.372583,22 0,15 0,12 C0,9 5.372583,2 12,2 C18.627417,2 24,9 24,12 C24,15 18.627417,22 12,22 Z" id="Oval-7"></path>
                    <path d="M12,15 C13.4070976,15 14.6153846,13.6910224 14.6153846,12 C14.6153846,10.3089776 13.4070976,9 12,9 C10.5929024,9 9.38461538,10.3089776 9.38461538,12 C9.38461538,13.6910224 10.5929024,15 12,15 Z M12,17 C9.45099346,17 7.38461538,14.7614237 7.38461538,12 C7.38461538,9.23857625 9.45099346,7 12,7 C14.5490065,7 16.6153846,9.23857625 16.6153846,12 C16.6153846,14.7614237 14.5490065,17 12,17 Z" id="Oval-7-Copy"></path>
                </g>
            </g>
        </g>
    </g>
</svg>