<?xml version="1.0" encoding="UTF-8"?>
<svg width="32px" height="32px" viewBox="0 0 32 32" version="1.1" xmlns="http://www.w3.org/2000/svg" xmlns:xlink="http://www.w3.org/1999/xlink">
    <!-- Generator: Sketch 48 (47235) - http://www.bohemiancoding.com/sketch -->
    <title>close_32</title>
    <desc>Created with Sketch.</desc>
    <defs></defs>
    <g id="认证2-交互说明" stroke="none" stroke-width="1" fill="none" fill-rule="evenodd" transform="translate(-166.000000, -293.000000)">
        <g id="close_32" transform="translate(166.000000, 293.000000)">
            <path d="M16,32 C7.1625,32 0,24.8375 0,16 C0,7.1625 7.1625,0 16,0 C24.8375,0 32,7.1625 32,16 C32,24.8375 24.8375,32 16,32 L16,32 Z" id="Shape" fill="#B2B2B2" transform="translate(16.000000, 16.000000) scale(1, -1) translate(-16.000000, -16.000000) "></path>
            <path d="M23.3645103,9.71529203 C23.7582603,9.32779203 23.7645103,8.69654203 23.3801353,8.29966703 L23.3801353,8.29966703 C22.9926353,7.90591703 22.3613853,7.89966703 21.9645103,8.28404203 L15.8332603,14.293417 L9.70201032,8.28716703 C9.30826032,7.89966703 8.67388532,7.90591703 8.28638532,8.30279203 L8.28638532,8.30279203 C7.89888532,8.69654203 7.90513532,9.33091703 8.30201032,9.71841703 L14.4051353,15.693417 L8.30201032,21.671542 C7.90826032,22.059042 7.90201032,22.690292 8.28638532,23.087167 L8.28638532,23.087167 C8.67388532,23.480917 9.30513532,23.487167 9.70201032,23.102792 L15.8332603,17.093417 L21.9645103,23.099667 C22.3582603,23.487167 22.9926353,23.480917 23.3801353,23.084042 L23.3801353,23.084042 C23.7676353,22.690292 23.7613853,22.055917 23.3645103,21.668417 L17.2613853,15.693417 L23.3645103,9.71529203 L23.3645103,9.71529203 Z" id="Path" fill="#FFFFFF"></path>
        </g>
    </g>
</svg>