<?xml version="1.0" encoding="UTF-8"?>
<svg width="39px" height="40px" viewBox="0 0 39 40" version="1.1" xmlns="http://www.w3.org/2000/svg" xmlns:xlink="http://www.w3.org/1999/xlink">
    <!-- Generator: Sketch 48 (47235) - http://www.bohemiancoding.com/sketch -->
    <title>customer_service_40</title>
    <desc>Created with Sketch.</desc>
    <defs></defs>
    <g id="修改手机号1" stroke="none" stroke-width="1" fill="none" fill-rule="evenodd" transform="translate(-356.000000, -545.000000)">
        <g id="客服" transform="translate(331.000000, 521.000000)" fill="#999999" fill-rule="nonzero">
            <g id="customer_service_40" transform="translate(24.000000, 24.000000)">
                <path d="M20.5508759,31.5571604 C20.7463516,31.5571604 20.9452411,31.5451286 21.1454736,31.5213446 C23.0657024,31.2908926 24.6962711,29.9486967 25.2980879,28.0990921 C25.3435292,27.9607538 25.2779416,27.81251 25.1454792,27.7517352 C25.0145278,27.6907364 24.856043,27.7434528 24.7819491,27.8675768 C24.7749539,27.8793848 24.0120221,29.1116711 21.0418877,29.5128076 C20.5972685,29.5724632 20.1646252,29.6037461 19.7545347,29.6037461 C17.6736386,29.602403 16.746346,28.8180937 16.7378398,28.8108745 C16.6331346,28.7177536 16.4733068,28.7153471 16.3659714,28.8060618 C16.2575727,28.8967764 16.2326136,29.0544218 16.3065396,29.1750761 C17.2123987,30.6436345 18.8379309,31.5571604 20.5508759,31.5571604 Z M36.5210705,13.1497589 C36.4948802,13.1497589 36.4710403,13.1545716 36.4461372,13.1545716 C34.7058266,5.6202773 28.0561818,0 20.0835361,0 C11.8916307,0 5.08937715,5.93064332 3.58170125,13.7767586 C2.11577309,14.0405641 1,15.3290364 1,16.8872461 L1,23.1237225 C1,24.8716439 2.40168363,26.2890529 4.13236863,26.2890529 C5.10862809,26.2890529 5.97033305,25.8280368 6.54355324,25.1200038 C7.92861609,28.7833412 10.7483243,31.7370787 14.3168059,33.2955123 C14.3253121,33.2769329 14.3928584,33.1455337 14.4741714,33.0408286 C14.5303573,32.9682457 14.5933148,32.9088139 14.6473182,32.9088139 C14.7032804,32.9088139 14.7546536,32.9291282 14.7985839,32.9601312 C13.9726946,32.3452192 10.9894651,29.1844778 10.3432704,24.7737101 C10.0597662,22.8323277 11.5138863,20.9265371 13.2074125,20.6113024 C15.926165,20.1050689 18.630703,19.5283791 21.3494555,19.0317151 C23.0777342,18.7164804 24.2588151,17.7684259 24.9810624,16.1899019 C25.1502919,15.8208875 25.3946785,15.0748004 25.5068266,13.9988164 C25.5365425,13.8388206 25.6677178,13.7159837 25.835828,13.7159837 C25.9479762,13.7159837 26.0432797,13.773233 26.1064609,13.8556652 L26.1814502,13.8091047 C27.2530132,15.3648521 29.3780634,18.8096014 29.6832249,22.4418798 C30.0336598,26.594662 29.838184,29.4389376 26.6595347,32.3487448 C26.6557853,32.3524383 26.6509725,32.3570272 26.6463836,32.3607767 C26.6022295,32.4084005 26.5759833,32.4704625 26.5759833,32.5386803 C26.5759833,32.6281078 26.623663,32.704608 26.6927203,32.7511686 C26.7189666,32.7619133 26.7452128,32.7762955 26.771459,32.7870403 C26.7928366,32.791853 26.8132068,32.7988483 26.8346403,32.7988483 C26.8562416,32.7988483 26.8752688,32.791853 26.8942959,32.7870403 C26.9395693,32.7632004 26.9823803,32.735667 27.0265344,32.7118271 C30.2411114,30.9409054 32.7071389,27.9834743 33.8466959,24.4263531 C34.3079918,25.1116654 35.0302391,25.6048597 35.8692234,25.7768873 C34.523502,31.8972983 29.0647874,35.7279065 22.3018752,36.3093531 C21.8965974,35.3039933 20.8989044,34.5900284 19.7272252,34.5900284 C18.1969965,34.5900284 16.956204,35.8020004 16.956204,37.2956857 C16.956204,38.7894271 18.1967727,40 19.7272252,40 C20.9610224,40 21.9943073,39.2073523 22.3530245,38.1182732 C30.1813998,37.4819277 36.4568259,32.828788 37.7668995,25.5989277 C38.9241965,25.115191 39.7369346,23.9797752 39.7369346,22.654368 L39.7369346,16.3440216 C39.7369346,14.5803189 38.2970288,13.1497589 36.5210705,13.1497589 Z M33.6331444,14.9624284 C31.5914219,9.43157859 26.3005936,5.48053988 20.0765408,5.48053988 C13.8785104,5.48053988 8.6067093,9.39811324 6.54595961,14.8931473 C6.44343699,14.7676802 6.32317434,14.6603448 6.2051502,14.5516664 C7.37179285,7.85546098 13.1348296,2.76419375 20.0835361,2.76419375 C26.9990011,2.76419375 32.744074,7.80537488 33.9489947,14.4550757 C33.8299073,14.6150714 33.7201655,14.7820625 33.6331444,14.9624284 Z M14.3193803,33.2955123 C14.3188072,33.2955123 14.3188072,33.2955123 14.3182342,33.2955123 C14.3149392,33.3026754 14.3149392,33.3038215 14.3193803,33.2955123 Z" id="Shape"></path>
            </g>
        </g>
    </g>
</svg>