<?xml version="1.0" encoding="UTF-8"?>
<svg width="36px" height="36px" viewBox="0 0 36 36" version="1.1" xmlns="http://www.w3.org/2000/svg" xmlns:xlink="http://www.w3.org/1999/xlink">
    <!-- Generator: Sketch 48 (47235) - http://www.bohemiancoding.com/sketch -->
    <title>delete_36</title>
    <desc>Created with Sketch.</desc>
    <defs></defs>
    <g id="概览（已认证已开店）" stroke="none" stroke-width="1" fill="none" fill-rule="evenodd" transform="translate(-684.000000, -857.000000)">
        <g id="Stacked-Group-2" transform="translate(0.000000, 554.000000)" fill="#B2B2B2" fill-rule="nonzero">
            <g id="Group-Copy-19">
                <g id="删除" transform="translate(666.000000, 294.000000)">
                    <path d="M24.862918,17.2702703 L25.7170017,41.6116538 C25.7261904,41.8735323 25.9411494,42.0810811 26.203189,42.0810811 L45.796811,42.0810811 C46.0588506,42.0810811 46.2738096,41.8735323 46.2829983,41.6116538 L47.137082,17.2702703 L24.862918,17.2702703 Z M24.8108108,14.3513514 L24.8108108,12.4054054 C24.8108108,10.5246519 26.3354627,9 28.2162162,9 L43.7837838,9 C45.6645373,9 47.1891892,10.5246519 47.1891892,12.4054054 L47.1891892,14.3513514 L52.5405405,14.3513514 C53.3465777,14.3513514 54,15.0047736 54,15.8108108 C54,16.616848 53.3465777,17.2702703 52.5405405,17.2702703 L50.0577971,17.2702703 L49.2001221,41.714009 C49.1358011,43.5471582 47.6310883,45 45.796811,45 L26.203189,45 C24.3689117,45 22.8641989,43.5471582 22.7998779,41.714009 L21.9422029,17.2702703 L19.4594595,17.2702703 C18.6534223,17.2702703 18,16.616848 18,15.8108108 C18,15.0047736 18.6534223,14.3513514 19.4594595,14.3513514 L24.8108108,14.3513514 Z M27.7297297,14.3513514 L44.2702703,14.3513514 L44.2702703,12.4054054 C44.2702703,12.1367263 44.0524629,11.9189189 43.7837838,11.9189189 L28.2162162,11.9189189 C27.9475371,11.9189189 27.7297297,12.1367263 27.7297297,12.4054054 L27.7297297,14.3513514 Z M30.1621622,20.1891892 L30.1621622,20.1891892 C30.9681994,20.1891892 31.6216216,20.8426114 31.6216216,21.6486486 L31.6216216,37.2162162 C31.6216216,38.0222534 30.9681994,38.6756757 30.1621622,38.6756757 L30.1621622,38.6756757 C29.356125,38.6756757 28.7027027,38.0222534 28.7027027,37.2162162 L28.7027027,21.6486486 C28.7027027,20.8426114 29.356125,20.1891892 30.1621622,20.1891892 Z M36,20.1891892 L36,20.1891892 C36.8060372,20.1891892 37.4594595,20.8426114 37.4594595,21.6486486 L37.4594595,37.2162162 C37.4594595,38.0222534 36.8060372,38.6756757 36,38.6756757 L36,38.6756757 C35.1939628,38.6756757 34.5405405,38.0222534 34.5405405,37.2162162 L34.5405405,21.6486486 C34.5405405,20.8426114 35.1939628,20.1891892 36,20.1891892 Z M41.8378378,20.1891892 L41.8378378,20.1891892 C42.643875,20.1891892 43.2972973,20.8426114 43.2972973,21.6486486 L43.2972973,37.2162162 C43.2972973,38.0222534 42.643875,38.6756757 41.8378378,38.6756757 L41.8378378,38.6756757 C41.0318006,38.6756757 40.3783784,38.0222534 40.3783784,37.2162162 L40.3783784,21.6486486 C40.3783784,20.8426114 41.0318006,20.1891892 41.8378378,20.1891892 Z" id="delete_36"></path>
                </g>
            </g>
        </g>
    </g>
</svg>