<?xml version="1.0" encoding="UTF-8"?>
<svg width="24px" height="24px" viewBox="0 0 24 24" version="1.1" xmlns="http://www.w3.org/2000/svg" xmlns:xlink="http://www.w3.org/1999/xlink">
    <!-- Generator: Sketch 48 (47235) - http://www.bohemiancoding.com/sketch -->
    <title>enclosure_24</title>
    <desc>Created with Sketch.</desc>
    <defs></defs>
    <g id="债券详情2-1" stroke="none" stroke-width="1" fill="none" fill-rule="evenodd" transform="translate(-30.000000, -2131.000000)">
        <g id="表单内容-copy-3" transform="translate(0.000000, 2014.000000)" fill="#666666" fill-rule="nonzero">
            <g id="Group-2" transform="translate(30.000000, 89.000000)">
                <g id="enclosure_24" transform="translate(0.000000, 28.000000)">
                    <path d="M5.69278985,17.0077633 C5.11638209,17.5341573 5.11638209,18.3592116 5.69278985,18.8856057 C5.95871312,19.1255344 6.30773744,19.258295 6.67892198,19.258295 L6.68261536,19.258295 C7.05964065,19.257109 7.41953699,19.1217767 7.67798097,18.8840062 L21.2049809,6.70682181 C22.4939701,5.54556661 22.4791966,3.64533085 21.1717405,2.47127944 C20.5657794,1.91523722 19.722155,1.59992594 18.8393717,1.59953828 C17.9769678,1.59953828 17.1718112,1.89864948 16.5679438,2.442488 L3.47306918,14.2325873 C1.39000353,16.1088302 1.29397568,19.3174774 3.27178003,21.0961493 C4.17159832,21.9283543 5.43089981,22.3983871 6.7472495,22.3933641 C8.23383448,22.3933641 9.69825918,21.8431275 10.7619523,20.8834125 L20.8171761,11.8285011 L22.1486392,12.9369719 L12.0915686,21.9934829 C10.6958489,23.258837 8.76764381,23.9802133 6.7472495,23.9928892 C4.96258371,24.0055051 3.25043153,23.3819996 2.01233784,22.2686012 C-0.737382674,19.7941359 -0.645048204,15.6353707 2.14160612,13.1225169 L15.234634,1.33241761 C16.1743553,0.478826418 17.4776605,-0.00290889515 18.8393717,1.32166584e-05 L18.8412184,1.32166584e-05 C20.2280822,1.32166584e-05 21.5281515,0.484669315 22.5013569,1.36280858 C24.486548,3.14787854 24.5013215,6.04461845 22.5345973,7.81689223 L12.2042167,17.116531 L12.1912899,17.1053343 L9.00759734,19.9620861 C8.38710968,20.5203203 7.56163952,20.7938391 6.68261536,20.7938391 L6.67707529,20.7938391 C5.79989782,20.7938391 4.97812104,20.5187208 4.36132677,19.9620861 C3.10726629,18.8191935 3.10807847,17.0253374 4.36317346,15.8832971 L14.8523693,6.44609924 L16.1838324,7.55936868 L5.69278985,17.0077633 Z" id="Shape"></path>
                </g>
            </g>
        </g>
    </g>
</svg>