<?xml version="1.0" encoding="UTF-8"?>
<svg width="22px" height="22px" viewBox="0 0 22 22" version="1.1" xmlns="http://www.w3.org/2000/svg" xmlns:xlink="http://www.w3.org/1999/xlink">
    <!-- Generator: Sketch 48 (47235) - http://www.bohemiancoding.com/sketch -->
    <title>forward_24</title>
    <desc>Created with Sketch.</desc>
    <defs></defs>
    <g id="概览（已认证已开店）" stroke="none" stroke-width="1" fill="none" fill-rule="evenodd" transform="translate(-159.000000, -864.000000)">
        <g id="Stacked-Group-2" transform="translate(0.000000, 554.000000)" fill="#B2B2B2" fill-rule="nonzero">
            <g id="Group-Copy-19">
                <g id="forward_24" transform="translate(158.000000, 309.000000)">
                    <path d="M19.7485277,3 L17,3 C16.5074217,3 16,2.49257829 16,2 C16,1.50742171 16.5074217,1 17,1 L23,1 L23,7 C23,7.49257829 22.4925783,8 22,8 C21.5074217,8 21,7.49257829 21,7 L21,4.57695486 L13.4502818,12.1266731 C13.0597575,12.5171974 12.4265925,12.5171974 12.0360682,12.1266731 C11.6455439,11.7361488 11.6455439,11.1029838 12.0360682,10.7124595 L19.7485277,3 Z M21,21 L21,12 C21,11.5074217 21.5074217,11 22,11 C22.4925783,11 23,11.5074217 23,12 L23,21.5135135 C23,22.3344773 22.3344773,23 21.5135135,23 L2.48648649,23 C1.66552267,23 1,22.3344773 1,21.5135135 L1,2.48648649 C1,1.66552267 1.66552267,1 2.48648649,1 L12,1 C12.4925783,1 13,1.50742171 13,2 C13,2.49257829 12.4925783,3 12,3 L3,3 L3,21 L21,21 Z" id="Combined-Shape"></path>
                </g>
            </g>
        </g>
    </g>
</svg>