<?xml version="1.0" encoding="UTF-8"?>
<svg width="36px" height="36px" viewBox="0 0 36 36" version="1.1" xmlns="http://www.w3.org/2000/svg" xmlns:xlink="http://www.w3.org/1999/xlink">
    <!-- Generator: Sketch 48 (47235) - http://www.bohemiancoding.com/sketch -->
    <title>forward_36</title>
    <desc>Created with Sketch.</desc>
    <defs></defs>
    <g id="概览（已认证已开店）" stroke="none" stroke-width="1" fill="none" fill-rule="evenodd" transform="translate(-658.000000, -1113.000000)">
        <g id="Group-3" transform="translate(632.000000, 1087.000000)" fill="#FFFFFF" fill-rule="nonzero">
            <path d="M57.1064935,28.9189189 L51.7837838,28.9189189 C50.9777466,28.9189189 50.3243243,28.2654967 50.3243243,27.4594595 C50.3243243,26.6534223 50.9777466,26 51.7837838,26 L62,26 L62,36.2162162 C62,37.0222534 61.3465777,37.6756757 60.5405405,37.6756757 C59.7345033,37.6756757 59.0810811,37.0222534 59.0810811,36.2162162 L59.0810811,31.072306 L46.1230081,44.0303791 C45.5530537,44.6003334 44.6289751,44.6003334 44.0590207,44.0303791 C43.4890663,43.4604247 43.4890663,42.5363461 44.0590207,41.9663917 L57.1064935,28.9189189 Z M59.0810811,59.0810811 L59.0810811,44 C59.0810811,43.1939628 59.7345033,42.5405405 60.5405405,42.5405405 C61.3465777,42.5405405 62,43.1939628 62,44 L62,59.5675676 C62,60.9109629 60.9109629,62 59.5675676,62 L28.4324324,62 C27.0890371,62 26,60.9109629 26,59.5675676 L26,28.4324324 C26,27.0890371 27.0890371,26 28.4324324,26 L44,26 C44.8060372,26 45.4594595,26.6534223 45.4594595,27.4594595 C45.4594595,28.2654967 44.8060372,28.9189189 44,28.9189189 L28.9189189,28.9189189 L28.9189189,59.0810811 L59.0810811,59.0810811 Z" id="forward_36"></path>
        </g>
    </g>
</svg>