<?xml version="1.0" encoding="UTF-8"?>
<svg width="24px" height="24px" viewBox="0 0 24 24" version="1.1" xmlns="http://www.w3.org/2000/svg" xmlns:xlink="http://www.w3.org/1999/xlink">
    <!-- Generator: Sketch 48 (47235) - http://www.bohemiancoding.com/sketch -->
    <title>give_the_thumbs_up_24</title>
    <desc>Created with Sketch.</desc>
    <defs></defs>
    <g id="债券详情2-2" stroke="none" stroke-width="1" fill="none" fill-rule="evenodd" transform="translate(-638.000000, -458.000000)">
        <g id="Group-2-Copy-6" transform="translate(638.000000, 452.000000)" fill="#888888" fill-rule="nonzero">
            <g id="give_the_thumbs_up_24" transform="translate(0.000000, 6.000000)">
                <path d="M14.3173705,0 C13.0283511,0 11.9054719,0.884513806 11.6677194,2.13781513 C11.6677194,2.13781513 11.2838781,4.09987995 11.0833639,4.8057623 C10.7539479,5.9697479 9.59955931,7.2547419 8.76599339,7.6667467 C8.1358061,7.98079232 5.79551965,7.98367347 5.64943077,7.98367347 L2.46698494,7.98367347 C1.59045171,7.98367347 0.877194271,8.69819928 0.877194271,9.58271309 L0.877194271,22.37503 C0.877194271,23.2566627 1.58758722,23.9740696 2.46698494,23.9740696 L17.1417554,23.9740696 C19.5020933,23.9740696 21.5072347,22.2367347 21.8567022,19.8885954 L23.0855674,11.6542617 C23.3748806,9.7210084 21.885347,7.98367347 19.9403599,7.98367347 L16.3225119,7.98367347 C16.3225119,7.98367347 16.8581711,6.19447779 17.133162,3.17214886 C17.2706574,1.6422569 16.1907455,0.181512605 14.6095483,0.0172869148 C14.5121557,0.00576230492 14.4147631,8.18872781e-16 14.3173705,8.18872781e-16 Z M7.23349247,22.3721489 L7.23349247,9.53373349 C8.27616599,9.46458583 9.02666177,9.31764706 9.47065736,9.09579832 C10.6422328,8.51380552 12.1374954,6.91188475 12.6101359,5.24081633 C12.822108,4.49459784 13.1830334,2.65066026 13.2260007,2.43457383 C13.3176643,1.95054022 13.7759824,1.59615846 14.3145061,1.59615846 C14.3574734,1.59615846 14.4004407,1.59903962 14.443408,1.60192077 C15.1996328,1.67971188 15.6035255,2.4 15.5491003,3.02232893 C15.2970253,5.81992797 14.8043335,7.50540216 14.7986045,7.51692677 L14.1798751,9.57695078 L19.9403599,9.57695078 C20.4101359,9.57695078 20.839809,9.7757503 21.1463092,10.1330132 C21.4528094,10.4902761 21.5845758,10.9454982 21.5129636,11.4151261 L20.2869629,19.6494598 C20.0520749,21.2283313 18.7286816,22.3721489 17.1417554,22.3721489 L7.23349247,22.3721489 Z M2.46698494,22.3721489 L2.46698494,9.57983193 L5.6437018,9.57983193 L5.6437018,22.3721489 L2.46698494,22.3721489 Z" id="点赞（24*24）"></path>
            </g>
        </g>
    </g>
</svg>