<?xml version="1.0" encoding="UTF-8"?>
<svg width="68px" height="58px" viewBox="0 0 68 58" version="1.1" xmlns="http://www.w3.org/2000/svg" xmlns:xlink="http://www.w3.org/1999/xlink">
    <!-- Generator: Sketch 48 (47235) - http://www.bohemiancoding.com/sketch -->
    <title>logo</title>
    <desc>Created with Sketch.</desc>
    <defs>
        <polygon id="path-1" points="20.6795 0.04375 20.6795 2.41375 0.10635 2.41375 0.10635 0.04375"></polygon>
        <polygon id="path-3" points="9.6795 0.2012 9.6795 2.5712 0.26335 2.5712 0.26335 0.2012 9.6795 0.2012"></polygon>
        <polygon id="path-5" points="14.6795 0.12355 14.6795 2.49355 0.26235 2.49355 0.26235 0.12355 14.6795 0.12355"></polygon>
    </defs>
    <g id="认证环节" stroke="none" stroke-width="1" fill="none" fill-rule="evenodd">
        <g id="logo" transform="translate(-10.000000, -15.000000)">
            <path d="M16.0671,60.8562 C15.6916,60.8562 15.3206,60.6767 15.0921,60.3432 C11.7611,55.5122 10.0001,49.8417 10.0001,43.9427 C10.0001,27.9832 22.9856,15.0002 38.9451,15.0002 C52.3736,15.0002 64.2511,24.4982 67.1876,37.5842 C67.3301,38.2232 66.9291,38.8552 66.2896,39.0002 C65.6461,39.1422 65.0161,38.7362 64.8741,38.1017 C62.1796,26.0892 51.2751,17.3697 38.9451,17.3697 C24.2916,17.3697 12.3696,29.2892 12.3696,43.9427 C12.3696,49.3587 13.9861,54.5652 17.0421,58.9997 C17.4126,59.5382 17.2776,60.2752 16.7386,60.6462 C16.5336,60.7887 16.3001,60.8562 16.0671,60.8562" id="Fill-1" fill="#2196F3"></path>
            <path d="M41.2822,51.4746 C40.7297,51.4746 40.2347,51.0851 40.1232,50.5226 C39.9947,49.8811 40.4097,49.2561 41.0512,49.1281 C41.7042,48.9926 42.3297,49.4146 42.4577,50.0541 C42.5862,50.6951 42.1827,51.3181 41.5412,51.4466 L41.5177,51.4511 C41.4382,51.4676 41.3592,51.4746 41.2822,51.4746" id="Fill-3" fill="#2196F3"></path>
            <path d="M32.54195,47.33425 C32.05445,47.33425 31.59945,47.03125 31.42695,46.54575 C31.34545,46.32425 31.28245,46.06975 31.22195,45.81325 C30.20945,41.47225 32.86595,37.18025 37.12995,36.18225 C41.41545,35.19775 45.70695,37.85225 46.70545,42.13025 C46.85445,42.76725 46.45845,43.40625 45.82145,43.55525 C45.17545,43.70925 44.54545,43.30825 44.39595,42.67125 C43.69395,39.66475 40.68045,37.78025 37.66895,38.49125 C34.67845,39.19125 32.81295,42.20475 33.51445,45.21125 C33.56595,45.43325 33.60545,45.60375 33.65945,45.75275 C33.87845,46.36825 33.55645,47.04475 32.94095,47.26675 C32.80795,47.31325 32.67495,47.33425 32.54195,47.33425" id="Fill-5" fill="#2196F3"></path>
            <path d="M37.72505,58.60985 C37.21405,58.60985 36.74305,58.27835 36.58905,57.76535 C36.40255,57.13785 36.75705,56.47785 37.38455,56.28885 C38.02355,56.10935 38.68605,56.45935 38.87255,57.08185 C39.05905,57.70685 38.71605,58.36485 38.08905,58.55385 L38.06555,58.56085 C37.95155,58.59335 37.83705,58.60985 37.72505,58.60985" id="Fill-7" fill="#2196F3"></path>
            <path d="M25.7541,48.20655 C25.2151,48.20655 24.7281,47.83805 24.5996,47.29005 C22.7566,39.38255 27.6881,31.44705 35.5956,29.59955 C43.5216,27.75705 51.4406,32.69005 53.2881,40.59555 C53.4351,41.23455 53.0406,41.87155 52.4041,42.02055 C51.7646,42.17455 51.1281,41.77355 50.9786,41.13655 C49.4301,34.50005 42.7846,30.35555 36.1341,31.90905 C29.5006,33.45755 25.3601,40.11705 26.9091,46.75355 C27.0561,47.39005 26.6616,48.02705 26.0226,48.17605 C25.9336,48.19705 25.8431,48.20655 25.7541,48.20655" id="Fill-9" fill="#2196F3"></path>
            <path d="M43.5588,64.9009 C43.0483,64.9009 42.5768,64.5694 42.4228,64.0564 C42.2363,63.4289 42.5908,62.7689 43.2183,62.5799 C43.8598,62.4004 44.5198,62.7504 44.7063,63.3729 C44.8928,63.9979 44.5498,64.6559 43.9228,64.8449 L43.8993,64.8519 C43.7853,64.8844 43.6708,64.9009 43.5588,64.9009" id="Fill-11" fill="#2196F3"></path>
            <path d="M19.43525,50.7632 C18.92675,50.7632 18.45775,50.4342 18.30175,49.9232 C18.18975,49.5527 18.10575,49.2047 18.01725,48.8272 C15.32525,37.2902 22.52125,25.7112 34.06025,23.0172 C45.60175,20.3207 57.19725,27.5142 59.89375,39.0512 C60.04075,39.6902 59.64625,40.3272 59.00975,40.4762 C58.37075,40.6302 57.73375,40.2292 57.58475,39.5922 C55.18675,29.3292 44.88575,22.9212 34.59725,25.3262 C24.33125,27.7217 17.92825,38.0247 20.32625,48.2907 C20.40075,48.6127 20.47075,48.9132 20.56875,49.2327 C20.76025,49.8602 20.40575,50.5207 19.78025,50.7117 C19.66625,50.7467 19.54975,50.7632 19.43525,50.7632" id="Fill-13" fill="#2196F3"></path>
            <path d="M30.1301,70.7322 C29.8061,70.7322 29.4841,70.5992 29.2506,70.3402 C23.7741,64.2737 19.8901,56.8347 18.0171,48.8292 C17.8701,48.1902 18.2646,47.5537 18.9011,47.4042 C19.5496,47.2597 20.1771,47.6537 20.3266,48.2882 C22.1061,55.9067 25.8011,62.9812 31.0096,68.7542 C31.4481,69.2397 31.4106,69.9882 30.9231,70.4267 C30.6971,70.6322 30.4121,70.7322 30.1301,70.7322" id="Fill-15" fill="#2196F3"></path>
            <path d="M41.74875,72.0664 C41.50875,72.0664 41.26825,71.9939 41.06075,71.8449 C32.76125,65.9249 26.91575,57.2034 24.59975,47.2924 C24.45275,46.6529 24.84675,46.0164 25.48375,45.8669 C26.12975,45.7244 26.75925,46.1169 26.90875,46.7509 C29.09225,56.1024 34.60625,64.3294 42.43675,69.9184 C42.96875,70.2959 43.09225,71.0379 42.71225,71.5694 C42.48125,71.8939 42.11725,72.0664 41.74875,72.0664" id="Fill-17" fill="#2196F3"></path>
            <path d="M50.7175,69.50755 C50.545,69.50755 50.3725,69.47055 50.2065,69.39305 C40.566,64.79605 33.6405,56.17705 31.2055,45.74805 C31.0585,45.11155 31.4525,44.47455 32.092,44.32505 C32.717,44.18055 33.3655,44.57255 33.5145,45.21155 C35.7845,54.93405 42.241,62.96705 51.228,67.25205 C51.8185,67.53405 52.068,68.24105 51.788,68.83355 C51.5825,69.25805 51.1585,69.50755 50.7175,69.50755" id="Fill-19" fill="#2196F3"></path>
            <path d="M57.46555,64.8916 C57.35105,64.8916 57.23705,64.8751 57.12055,64.8401 C47.48455,61.9151 40.07605,54.0101 37.79005,44.2111 C37.64305,43.5741 38.03755,42.9371 38.67655,42.7881 C39.30655,42.6431 39.95055,43.0351 40.09955,43.6741 C42.19455,52.6501 48.97955,59.8926 57.81055,62.5731 C58.43605,62.7621 58.79055,63.4241 58.59955,64.0516 C58.44305,64.5626 57.97405,64.8916 57.46555,64.8916" id="Fill-21" fill="#2196F3"></path>
            <path d="M57.46555,64.8916 C57.35105,64.8916 57.23705,64.8751 57.12055,64.8401 C47.48455,61.9151 40.07605,54.0101 37.79005,44.2111 C37.64305,43.5741 38.03755,42.9371 38.67655,42.7881 C39.30655,42.6431 39.95055,43.0351 40.09955,43.6741 C42.19455,52.6501 48.97955,59.8926 57.81055,62.5731 C58.43605,62.7621 58.79055,63.4241 58.59955,64.0516 C58.44305,64.5626 57.97405,64.8916 57.46555,64.8916" id="Fill-23" fill="#2196F3"></path>
            <path d="M62.2053,59.02735 C62.1448,59.02735 62.0818,59.02285 62.0213,59.01335 C53.3158,57.65835 46.3973,51.24385 44.3963,42.66885 C44.2493,42.03235 44.6433,41.39535 45.2828,41.24585 C45.9103,41.09935 46.5563,41.49585 46.7053,42.13235 C48.4853,49.75785 54.6388,55.46535 62.3848,56.67135 C63.0313,56.77185 63.4743,57.37835 63.3738,58.02435 C63.2833,58.60985 62.7793,59.02735 62.2053,59.02735" id="Fill-25" fill="#2196F3"></path>
            <path d="M65.0161,52.4846 L64.9881,52.4846 C58.2611,52.3261 52.5021,47.6586 50.9786,41.1341 C50.8316,40.4971 51.2261,39.8606 51.8651,39.7116 C52.4901,39.5646 53.1386,39.9611 53.2881,40.5976 C54.5641,46.0676 59.3971,49.9816 65.0441,50.1146 C65.6971,50.1306 66.2151,50.6741 66.2011,51.3276 C66.1846,51.9716 65.6576,52.4846 65.0161,52.4846" id="Fill-27" fill="#2196F3"></path>
            <path d="M65.30075,45.73635 C61.66175,45.73635 58.43125,43.21935 57.58475,39.59035 C57.43775,38.95335 57.83175,38.31635 58.47075,38.16735 C59.10525,38.02035 59.74475,38.41685 59.89375,39.05335 C60.53275,41.79885 63.11975,43.65135 65.90475,43.33385 C66.55825,43.27085 67.14125,43.73285 67.21125,44.38335 C67.28075,45.03435 66.81225,45.61735 66.16125,45.68985 C65.87225,45.72235 65.58525,45.73635 65.30075,45.73635" id="Fill-29" fill="#2196F3"></path>
            <g id="Group-33" transform="translate(57.000000, 69.566500)">
                <mask id="mask-2" fill="white">
                    <use xlink:href="#path-1"></use>
                </mask>
                <g id="Clip-32"></g>
                <path d="M19.49485,2.41375 L1.29135,2.41375 C0.63585,2.41375 0.10635,1.88425 0.10635,1.22875 C0.10635,0.57325 0.63585,0.04375 1.29135,0.04375 L19.49485,0.04375 C20.15035,0.04375 20.67985,0.57325 20.67985,1.22875 C20.67985,1.88425 20.15035,2.41375 19.49485,2.41375" id="Fill-31" fill="#EEA023" mask="url(#mask-2)"></path>
            </g>
            <g id="Group-36" transform="translate(68.000000, 57.566500)">
                <mask id="mask-4" fill="white">
                    <use xlink:href="#path-3"></use>
                </mask>
                <g id="Clip-35"></g>
                <path d="M8.49485,2.5712 L1.44785,2.5712 C0.79285,2.5712 0.26335,2.0417 0.26335,1.3862 C0.26335,0.7307 0.79285,0.2012 1.44785,0.2012 L8.49485,0.2012 C9.15035,0.2012 9.67985,0.7307 9.67985,1.3862 C9.67985,2.0417 9.15035,2.5712 8.49485,2.5712" id="Fill-34" fill="#EEA023" mask="url(#mask-4)"></path>
            </g>
            <g id="Group-39" transform="translate(63.000000, 63.566500)">
                <mask id="mask-6" fill="white">
                    <use xlink:href="#path-5"></use>
                </mask>
                <g id="Clip-38"></g>
                <path d="M13.49485,2.49355 L1.44685,2.49355 C0.79135,2.49355 0.26235,1.96405 0.26235,1.30855 C0.26235,0.65305 0.79135,0.12355 1.44685,0.12355 L13.49485,0.12355 C14.15035,0.12355 14.67985,0.65305 14.67985,1.30855 C14.67985,1.96405 14.15035,2.49355 13.49485,2.49355" id="Fill-37" fill="#EEA023" mask="url(#mask-6)"></path>
            </g>
        </g>
    </g>
</svg>