<?xml version="1.0" encoding="UTF-8"?>
<svg width="40px" height="39px" viewBox="0 0 40 39" version="1.1" xmlns="http://www.w3.org/2000/svg" xmlns:xlink="http://www.w3.org/1999/xlink">
    <!-- Generator: Sketch 48 (47235) - http://www.bohemiancoding.com/sketch -->
    <title>management_released_54</title>
    <desc>Created with Sketch.</desc>
    <defs></defs>
    <g id="底部标签/1" stroke="none" stroke-width="1" fill="none" fill-rule="evenodd" transform="translate(-356.000000, -18.000000)">
        <g id="management_released_54" transform="translate(348.000000, 11.000000)" fill="#888888" fill-rule="nonzero">
            <path d="M26,10.5 L26,21.5 C26,22.3333333 26,23.1666667 26,24 C26,25.1045695 25.1045695,26 24,26 L10.5,26 C9.3954305,26 8.5,25.1045695 8.5,24 L8.5,10.5 C8.5,9.3954305 9.3954305,8.5 10.5,8.5 L24,8.5 C25.1045695,8.5 26,9.3954305 26,10.5 Z M11.5,12.5 L11.5,22 C11.5,22.5522847 11.9477153,23 12.5,23 L22,23 C22.5522847,23 23,22.5522847 23,22 L23,12.5 C23,11.9477153 22.5522847,11.5 22,11.5 L12.5,11.5 C11.9477153,11.5 11.5,11.9477153 11.5,12.5 Z M26,30 L26,41 C26,41.8333333 26,42.6666667 26,43.5 C26,44.6045695 25.1045695,45.5 24,45.5 L10.5,45.5 C9.3954305,45.5 8.5,44.6045695 8.5,43.5 L8.5,30 C8.5,28.8954305 9.3954305,28 10.5,28 L24,28 C25.1045695,28 26,28.8954305 26,30 Z M11.5,32 L11.5,41.5 C11.5,42.0522847 11.9477153,42.5 12.5,42.5 L22,42.5 C22.5522847,42.5 23,42.0522847 23,41.5 L23,32 C23,31.4477153 22.5522847,31 22,31 L12.5,31 C11.9477153,31 11.5,31.4477153 11.5,32 Z M45.5,30 L45.5,41 C45.5,41.8333333 45.5,42.6666667 45.5,43.5 C45.5,44.6045695 44.6045695,45.5 43.5,45.5 L30,45.5 C28.8954305,45.5 28,44.6045695 28,43.5 L28,30 C28,28.8954305 28.8954305,28 30,28 L43.5,28 C44.6045695,28 45.5,28.8954305 45.5,30 Z M31,32 L31,41.5 C31,42.0522847 31.4477153,42.5 32,42.5 L41.5,42.5 C42.0522847,42.5 42.5,42.0522847 42.5,41.5 L42.5,32 C42.5,31.4477153 42.0522847,31 41.5,31 L32,31 C31.4477153,31 31,31.4477153 31,32 Z M46.7959415,18.6642136 L38.6642136,26.7959415 C37.883165,27.5769901 36.616835,27.5769901 35.8357864,26.7959415 L27.7040585,18.6642136 C26.9230099,17.883165 26.9230099,16.616835 27.7040585,15.8357864 L35.8357864,7.70405845 C36.616835,6.92300987 37.883165,6.92300987 38.6642136,7.70405845 L46.7959415,15.8357864 C47.5769901,16.616835 47.5769901,17.883165 46.7959415,18.6642136 Z M36.5428932,11.2395924 L31.2395924,16.5428932 C30.8490681,16.9334175 30.8490681,17.5665825 31.2395924,17.9571068 L36.5428932,23.2604076 C36.9334175,23.6509319 37.5665825,23.6509319 37.9571068,23.2604076 L43.2604076,17.9571068 C43.6509319,17.5665825 43.6509319,16.9334175 43.2604076,16.5428932 L37.9571068,11.2395924 C37.5665825,10.8490681 36.9334175,10.8490681 36.5428932,11.2395924 Z" id="管理/发布（54*54）"></path>
        </g>
    </g>
</svg>