<?xml version="1.0" encoding="UTF-8"?>
<svg width="36px" height="37px" viewBox="0 0 36 37" version="1.1" xmlns="http://www.w3.org/2000/svg" xmlns:xlink="http://www.w3.org/1999/xlink">
    <!-- Generator: Sketch 48 (47235) - http://www.bohemiancoding.com/sketch -->
    <title>market_54</title>
    <desc>Created with Sketch.</desc>
    <defs></defs>
    <g id="底部标签/2" stroke="none" stroke-width="1" fill="none" fill-rule="evenodd" transform="translate(-111.000000, -19.000000)">
        <g id="market_54" transform="translate(102.000000, 11.000000)" fill="#888888" fill-rule="nonzero">
            <path d="M12,42 L42,42 L42,23.6055513 L31.6641006,30.4961509 C30.7294523,31.1192497 29.5250185,31.1679981 28.5430712,30.6224718 L21.3407386,26.621176 L12,34.4051248 L12,42 Z M39.7955451,11.5 L37,11.5 C36.1715729,11.5 35.5,10.8284271 35.5,10 C35.5,9.17157288 36.1715729,8.5 37,8.5 L43.5,8.5 C44.3284271,8.5 45,9.17157288 45,10 L45,16.5 C45,17.3284271 44.3284271,18 43.5,18 C42.6715729,18 42,17.3284271 42,16.5 L42,13.5866557 L30.9195977,22.1850485 C30.4450591,22.5532906 29.7966045,22.6029409 29.2715356,22.3112359 L21.1289071,17.7875534 L11.4090648,25.1931476 C10.7501076,25.6952102 9.80891506,25.568022 9.30685242,24.9090648 C8.80478978,24.2501076 8.93197796,23.3089151 9.59093518,22.8068524 L20.0909352,14.8068524 C20.5648789,14.4457524 21.2076135,14.3994025 21.7284644,14.6887641 L29.8627785,19.2078275 L39.7955451,11.5 Z M9.7196312,32.4003073 L21,23 L30,28 L41.8905996,20.0729336 C42.809657,19.4602287 44.0513957,19.7085764 44.6641006,20.6276338 C44.8831239,20.9561688 45,21.3421842 45,21.7370342 L45,43 C45,44.1045695 44.1045695,45 43,45 L11,45 C9.8954305,45 9,44.1045695 9,43 L9,33.9367499 C9,33.3431902 9.26364602,32.780295 9.7196312,32.4003073 Z" id="Combined-Shape"></path>
        </g>
    </g>
</svg>