<?xml version="1.0" encoding="UTF-8"?>
<svg width="24px" height="24px" viewBox="0 0 24 24" version="1.1" xmlns="http://www.w3.org/2000/svg" xmlns:xlink="http://www.w3.org/1999/xlink">
    <!-- Generator: Sketch 48 (47235) - http://www.bohemiancoding.com/sketch -->
    <title>modify_24</title>
    <desc>Created with Sketch.</desc>
    <defs></defs>
    <g id="管理/1" stroke="none" stroke-width="1" fill="none" fill-rule="evenodd" transform="translate(-630.000000, -28.000000)">
        <g id="Group-2-Copy-6" fill="#576B95" fill-rule="nonzero">
            <g id="Group" transform="translate(30.000000, 18.000000)">
                <g id="modify_24" transform="translate(600.000000, 10.000000)">
                    <path d="M5.43523787,22.2319431 C5.92935039,22.2319431 6.42346294,21.9849215 6.91757546,21.7378999 L7.16463174,21.7378999 L2.22350642,16.7974681 L2.22350642,17.0444897 C1.97645014,17.5385329 1.72939387,18.032576 1.72939387,18.5266192 L0,23.9610942 L5.43523787,22.2319431 Z M22.7291765,2.4702159 L21.2468389,0.741064772 C20.2586139,-0.247021591 19.0233326,-0.247021591 18.0351075,0.741064772 L16.5527699,2.4702159 L21.2468389,7.16362612 L22.7291765,5.68149659 C23.7174016,4.69341022 23.7174016,3.2112807 22.7291765,2.4702159 Z M19.7645013,8.64575564 L8.64696936,19.7617272 L3.95290028,15.068317 L15.0704323,3.95234546 L19.7645013,8.64575564 Z M11.5862069,24 C10.6720804,24 9.93103448,23.2589541 9.93103448,22.3448276 C9.93103448,21.4307011 10.6720804,20.6896552 11.5862069,20.6896552 C12.5003334,20.6896552 13.2413793,21.4307011 13.2413793,22.3448276 C13.2413793,23.2589541 12.5003334,24 11.5862069,24 Z M16.137931,24 C15.2238046,24 14.4827586,23.2589541 14.4827586,22.3448276 C14.4827586,21.4307011 15.2238046,20.6896552 16.137931,20.6896552 C17.0520575,20.6896552 17.7931034,21.4307011 17.7931034,22.3448276 C17.7931034,23.2589541 17.0520575,24 16.137931,24 Z M20.6896552,24 C19.7755287,24 19.0344828,23.2589541 19.0344828,22.3448276 C19.0344828,21.4307011 19.7755287,20.6896552 20.6896552,20.6896552 C21.6037817,20.6896552 22.3448276,21.4307011 22.3448276,22.3448276 C22.3448276,23.2589541 21.6037817,24 20.6896552,24 Z" id="Shape"></path>
                </g>
            </g>
        </g>
    </g>
</svg>