<?xml version="1.0" encoding="UTF-8"?>
<svg width="34px" height="34px" viewBox="0 0 34 34" version="1.1" xmlns="http://www.w3.org/2000/svg" xmlns:xlink="http://www.w3.org/1999/xlink">
    <!-- Generator: Sketch 48 (47235) - http://www.bohemiancoding.com/sketch -->
    <title>modify_24</title>
    <desc>Created with Sketch.</desc>
    <defs></defs>
    <g id="管理/1" stroke="none" stroke-width="1" fill="none" fill-rule="evenodd" transform="translate(-619.000000, -23.000000)">
        <g id="Group-2-Copy-6" fill="#B2B2B2" fill-rule="nonzero">
            <g id="modify_24" transform="translate(618.000000, 22.000000)">
                <path d="M8.69992032,32.4952527 C9.39991305,32.4952527 10.0999058,32.1453054 10.7998986,31.7953582 L11.149895,31.7953582 L4.14996743,24.7964132 L4.14996743,25.1463605 C3.79997103,25.8462549 3.44997464,26.5461494 3.44997464,27.2460439 L1,34.9448835 L8.69992032,32.4952527 Z M33.1996668,4.49947252 L31.0996885,2.04984176 C29.699703,0.650052746 27.9497211,0.650052746 26.5497356,2.04984176 L24.4497573,4.49947252 L31.0996885,11.1484703 L33.1996668,9.04878683 C34.5996523,7.64899782 34.5996523,5.54931432 33.1996668,4.49947252 Z M28.9997102,13.2481538 L13.2498733,28.9957802 L6.59994207,22.3467824 L22.3497791,6.59915607 L28.9997102,13.2481538 Z M17.4137931,35 C16.1187806,35 15.0689655,33.9501849 15.0689655,32.6551724 C15.0689655,31.3601599 16.1187806,30.3103448 17.4137931,30.3103448 C18.7088056,30.3103448 19.7586207,31.3601599 19.7586207,32.6551724 C19.7586207,33.9501849 18.7088056,35 17.4137931,35 Z M23.862069,35 C22.5670564,35 21.5172414,33.9501849 21.5172414,32.6551724 C21.5172414,31.3601599 22.5670564,30.3103448 23.862069,30.3103448 C25.1570815,30.3103448 26.2068966,31.3601599 26.2068966,32.6551724 C26.2068966,33.9501849 25.1570815,35 23.862069,35 Z M30.3103448,35 C29.0153323,35 27.9655172,33.9501849 27.9655172,32.6551724 C27.9655172,31.3601599 29.0153323,30.3103448 30.3103448,30.3103448 C31.6053573,30.3103448 32.6551724,31.3601599 32.6551724,32.6551724 C32.6551724,33.9501849 31.6053573,35 30.3103448,35 Z" id="Shape"></path>
            </g>
        </g>
    </g>
</svg>