<?xml version="1.0" encoding="UTF-8"?>
<svg width="32px" height="38px" viewBox="0 0 32 38" version="1.1" xmlns="http://www.w3.org/2000/svg" xmlns:xlink="http://www.w3.org/1999/xlink">
    <!-- Generator: Sketch 48 (47235) - http://www.bohemiancoding.com/sketch -->
    <title>overview_54</title>
    <desc>Created with Sketch.</desc>
    <defs></defs>
    <g id="底部标签/1" stroke="none" stroke-width="1" fill="none" fill-rule="evenodd" transform="translate(-605.000000, -18.000000)">
        <g id="overview_54" transform="translate(594.000000, 10.000000)" fill="#888888" fill-rule="nonzero">
            <path d="M20.8552559,29.2224558 C17.636758,27.1840491 15.5,23.5915578 15.5,19.5 C15.5,13.1487254 20.6487254,8 27,8 C33.3512746,8 38.5,13.1487254 38.5,19.5 C38.5,23.5915578 36.363242,27.1840491 33.1447441,29.2224558 C38.9316159,31.6314842 43,37.3406311 43,44 C43,44.8284271 42.3284271,45.5 41.5,45.5 C40.6715729,45.5 40,44.8284271 40,44 C40,36.8202983 34.1797017,31 27,31 C19.8202983,31 14,36.8202983 14,44 C14,44.8284271 13.3284271,45.5 12.5,45.5 C11.6715729,45.5 11,44.8284271 11,44 C11,37.3406311 15.0683841,31.6314842 20.8552559,29.2224558 Z M27,28 C31.6944204,28 35.5,24.1944204 35.5,19.5 C35.5,14.8055796 31.6944204,11 27,11 C22.3055796,11 18.5,14.8055796 18.5,19.5 C18.5,24.1944204 22.3055796,28 27,28 Z" id="Combined-Shape"></path>
        </g>
    </g>
</svg>