<?xml version="1.0" encoding="UTF-8"?>
<svg width="32px" height="32px" viewBox="0 0 32 32" version="1.1" xmlns="http://www.w3.org/2000/svg" xmlns:xlink="http://www.w3.org/1999/xlink">
    <!-- Generator: Sketch 48 (47235) - http://www.bohemiancoding.com/sketch -->
    <title>prompt_32</title>
    <desc>Created with Sketch.</desc>
    <defs></defs>
    <g id="认证3-copy" stroke="none" stroke-width="1" fill="none" fill-rule="evenodd" transform="translate(-477.000000, -253.000000)">
        <g id="-表单/选择/组合列表" transform="translate(0.000000, 225.000000)" fill="#576B95">
            <g id="prompt_32" transform="translate(477.000000, 28.000000)">
                <g id="小图标/关于">
                    <path d="M16.4848485,32 C7.163444,32 0,24.836556 0,16.4848485 C0,7.163444 7.163444,0 16.4848485,0 C24.836556,0 32,7.163444 32,16.4848485 C32,24.836556 24.836556,32 16.4848485,32 Z M16,30 C23.7319865,30 30,23.7319865 30,16 C30,8.2680135 23.7319865,2 16,2 C8.2680135,2 2,8.2680135 2,16 C2,23.7319865 8.2680135,30 16,30 Z M13,12 L18,12 L18,24 L20,24 L20,25 L13,25 L13,24 L15,24 L15,13 L13,13 L13,12 Z M16,10 C14.8954305,10 14,9.1045695 14,8 C14,6.8954305 14.8954305,6 16,6 C17.1045695,6 18,6.8954305 18,8 C18,9.1045695 17.1045695,10 16,10 Z" id="Detail-Disclosure"></path>
                </g>
            </g>
        </g>
    </g>
</svg>