<?xml version="1.0" encoding="UTF-8"?>
<svg width="320px" height="293px" viewBox="0 0 320 293" version="1.1" xmlns="http://www.w3.org/2000/svg" xmlns:xlink="http://www.w3.org/1999/xlink">
    <!-- Generator: Sketch 48 (47235) - http://www.bohemiancoding.com/sketch -->
    <title>立马开店（320*320）</title>
    <desc>Created with Sketch.</desc>
    <defs></defs>
    <g id="概览" stroke="none" stroke-width="1" fill="none" fill-rule="evenodd">
        <g id="立马开店（320*320）">
            <path d="M292.358484,249.923539 C309.803322,224.296267 320,193.338914 320,160 C320,71.63444 248.36556,0 160,0 C71.63444,0 0,71.63444 0,160 C0,193.335684 10.1947022,224.290268 27.6364449,249.916089 C162.075435,249.89457 246.991892,249.972528 292.358484,249.923539 Z" id="Mask" fill="#FFFFFF"></path>
            <path d="M89.1428571,174.320466 C88.3940382,174.423234 87.6308718,174.47619 86.8571429,174.47619 C77.5996746,174.47619 70.0952381,166.971754 70.0952381,157.714286 L70.5103133,155.913293 L89.2952381,97.7248345 L89.2952381,84.1904762 C89.2952381,83.6523834 89.4563142,83.1350813 89.7518751,82.6985822 C89.9441048,82.4142424 90.1887253,82.1692836 90.4693227,81.980912 C90.9065098,81.6848856 91.423812,81.5238095 91.9619048,81.5238095 L224.533333,81.5238095 C225.071426,81.5238095 225.588728,81.6848856 226.022167,81.9783845 C226.307654,82.17005 226.55376,82.4161552 226.742898,82.6978942 C227.038924,83.1350813 227.2,83.6523834 227.2,84.1904762 L227.2,97.7183699 L246.445749,155.151336 L246.857143,157.6197 C246.857143,159.422273 246.601072,161.097121 246.103187,162.698 C245.779262,163.740405 245.353832,164.746339 244.833544,165.704461 C244.062671,167.12329 243.090026,168.424063 241.947757,169.567153 C240.029617,171.484467 237.674876,172.915153 235.079211,173.722154 C233.478073,174.22012 231.803226,174.47619 230.095238,174.47619 C229.325358,174.47619 228.562212,174.424163 227.809524,174.321408 L227.809524,241.52381 L248.666667,241.52381 C249.771236,241.52381 250.666667,242.41924 250.666667,243.52381 L250.666667,247.904762 C250.666667,249.009331 249.771236,249.904762 248.666667,249.904762 L71.3333333,249.904762 C70.2287638,249.904762 69.3333333,249.009331 69.3333333,247.904762 L69.3333333,243.52381 C69.3333333,242.41924 70.2287638,241.52381 71.3333333,241.52381 L89.1428571,241.52381 L89.1428571,174.320466 Z M97.5238095,170.634673 L97.5238095,241.52381 L140.190476,241.52381 L140.190476,172.660325 C135.914469,171.830968 132.17443,169.283405 129.817344,165.637118 C126.825748,170.137575 121.76255,172.952381 116.190476,172.952381 C110.247561,172.952381 104.91484,169.751953 102.037662,164.793225 C100.974508,167.077108 99.4213391,169.064611 97.5238095,170.634673 Z M148.571429,172.041595 L148.571429,241.52381 L219.428571,241.52381 L219.428571,170.64493 C219.017122,170.305218 218.621182,169.945453 218.242254,169.566689 C217.10045,168.424063 216.127805,167.12329 215.356811,165.704238 C215.06324,165.163621 214.799846,164.607704 214.567913,164.03879 C211.824377,169.398123 206.266444,172.952381 200,172.952381 C193.880641,172.952381 188.414605,169.560416 185.605028,164.368608 C184.854874,165.803496 183.890049,167.118428 182.742484,168.266522 C179.761558,171.246604 175.728542,172.952381 171.428571,172.952381 C167.128601,172.952381 163.095585,171.246604 160.114333,168.266197 C159.009351,167.160636 158.073352,165.892082 157.333413,164.503144 C156.593383,165.892041 155.657094,167.160858 154.552008,168.266522 C152.852089,169.96596 150.810027,171.25099 148.571429,172.041595 Z M92.1428571,173.621428 L92.1428571,244.52381 L72.3333333,244.52381 L72.3333333,246.904762 L247.666667,246.904762 L247.666667,244.52381 L224.809524,244.52381 L224.809524,173.625182 C223.98853,173.352643 223.192776,173.017338 222.428571,172.623678 L222.428571,244.52381 L145.571429,244.52381 L145.571429,172.783025 C144.80585,172.895043 144.026459,172.952381 143.238095,172.952381 C143.222218,172.952381 143.206345,172.952358 143.190476,172.952311 L143.190476,244.52381 L94.5238095,244.52381 L94.5238095,172.617287 C93.7610493,173.011038 92.9653705,173.347437 92.1428571,173.621428 Z M131.04762,209.474682 C133.305476,210.596741 134.857143,212.926689 134.857143,215.619048 C134.857143,219.406143 131.787095,222.47619 128,222.47619 C124.212905,222.47619 121.142857,219.406143 121.142857,215.619048 C121.142857,212.926689 122.694524,210.596741 124.95238,209.474682 L124.952381,187.477702 C122.694524,186.35564 121.142857,184.025692 121.142857,181.333333 C121.142857,177.546238 124.212905,174.47619 128,174.47619 C131.787095,174.47619 134.857143,177.546238 134.857143,181.333333 C134.857143,184.025692 133.305476,186.35564 131.04762,187.477699 L131.047619,209.474679 Z M86.0952381,264.380952 L136.380952,264.380952 L136.380952,266.666667 L86.0952381,266.666667 L86.0952381,264.380952 Z M203.428571,264.380952 L253.714286,264.380952 L253.714286,266.666667 L203.428571,266.666667 L203.428571,264.380952 Z M129.52381,290.285714 L160,290.285714 L160,292.571429 L129.52381,292.571429 L129.52381,290.285714 Z M185.142857,290.285714 L204.952381,290.285714 L204.952381,292.571429 L185.142857,292.571429 L185.142857,290.285714 Z M168.952381,225.871783 L193.333333,183.642734 C194.069713,182.367287 195.700621,181.930287 196.976068,182.666667 C198.251515,183.403046 198.688515,185.033954 197.952135,186.309401 L173.571183,228.538449 C172.834803,229.813896 171.203896,230.250897 169.928449,229.514517 C168.653002,228.778137 168.216001,227.14723 168.952381,225.871783 Z M168.952381,199.423925 L181.142857,178.309401 C181.879237,177.033954 183.510145,176.596954 184.785592,177.333333 C186.061039,178.069713 186.498039,179.700621 185.761659,180.976068 L173.571183,202.090592 C172.834803,203.366039 171.203896,203.803039 169.928449,203.06666 C168.653002,202.33028 168.216001,200.699372 168.952381,199.423925 Z" id="Combined-Shape" fill="#D8D8D8"></path>
            <path d="M224.913641,98.0911539 L224.913641,84.1904762 C224.820833,83.9366067 224.786558,83.902331 224.743725,83.8735642 C224.702621,83.8457316 180.441799,83.8243849 91.9612596,83.8095238 C91.6025988,84.0410959 91.5803072,84.1126862 91.5803072,84.1904762 L91.5803072,98.0846893 L72.7178017,156.505 L72.3809524,157.852397 C72.4550781,165.783894 78.9074824,172.190476 86.8564977,172.190476 C93.414625,172.190476 99.0952757,167.782863 100.804073,161.53835 L101.744515,158.101665 L102.978528,161.444186 C105.008555,166.942836 110.244659,170.666667 116.189831,170.666667 C121.594709,170.666667 126.442704,167.58831 128.80954,162.819183 L129.854151,160.714312 L130.864973,162.835618 C133.126728,167.582129 137.900497,170.666667 143.23745,170.666667 C146.92504,170.666667 150.378773,169.205899 152.935022,166.650375 C154.279727,165.304967 155.334689,163.67319 156.030301,161.860937 L156.321029,161.103515 L157.131957,161.128146 L158.346078,161.108286 L158.637201,161.865854 C159.333062,163.676641 160.386795,165.306113 161.730029,166.650049 C164.286604,169.205899 167.740336,170.666667 171.427926,170.666667 C175.115517,170.666667 178.569249,169.205899 181.125523,166.65035 C182.664882,165.110281 183.820818,163.219402 184.487899,161.132422 L184.74198,160.337524 L186.402944,160.337524 L186.666704,161.111901 C188.597451,166.780416 193.924731,170.666667 199.999355,170.666667 C206.380769,170.666667 211.90947,166.380807 213.577679,160.306119 L213.784505,159.552974 L215.682058,159.355312 L215.876161,160.390527 C215.990912,161.002531 216.117359,161.532403 216.269399,162.019714 C216.548765,162.918726 216.915787,163.786555 217.364708,164.613253 C218.030631,165.838916 218.871273,166.963155 219.857969,167.950561 C221.515617,169.607494 223.549251,170.843083 225.789423,171.53956 C227.171474,171.969388 228.617515,172.190476 230.094593,172.190476 C231.571671,172.190476 233.017712,171.969388 234.399866,171.539528 C236.639935,170.843083 238.673569,169.607494 240.330752,167.951026 C241.317913,166.963155 242.158555,165.838916 242.824357,164.613476 C243.273399,163.786555 243.640421,162.918726 243.919867,162.019456 C244.340686,160.666373 244.561424,159.251954 244.570492,157.807124 L244.220273,155.705807 L224.913641,98.0911539 Z" id="Path-Copy" fill="#EFEFF4"></path>
            <path d="M161.52381,107.619048 C159.945853,107.619048 158.666667,108.898234 158.666667,110.47619 L158.666667,145.52381 C158.666667,147.101766 159.945853,148.380952 161.52381,148.380952 C163.101766,148.380952 164.380952,147.101766 164.380952,145.52381 L164.380952,110.47619 C164.380952,108.898234 163.101766,107.619048 161.52381,107.619048 Z M161.52381,103.619048 C165.310905,103.619048 168.380952,106.689095 168.380952,110.47619 L168.380952,145.52381 C168.380952,149.310905 165.310905,152.380952 161.52381,152.380952 C157.736714,152.380952 154.666667,149.310905 154.666667,145.52381 L154.666667,110.47619 C154.666667,106.689095 157.736714,103.619048 161.52381,103.619048 Z M191.654508,109.855421 L195.317982,144.711046 C195.713842,148.477395 192.981519,151.851532 189.21517,152.247391 C185.448821,152.64325 182.074684,149.910928 181.678825,146.144579 L178.015351,111.288954 C177.619492,107.522605 180.351814,104.148468 184.118163,103.752609 C187.884513,103.35675 191.258649,106.089072 191.654508,109.855421 Z M184.536277,107.730697 C182.966965,107.895638 181.828497,109.301528 181.993439,110.87084 L185.656912,145.726465 C185.821854,147.295777 187.227744,148.434245 188.797056,148.269303 C190.366369,148.104362 191.504836,146.698472 191.339895,145.12916 L187.676421,110.273535 C187.51148,108.704223 186.105589,107.565755 184.536277,107.730697 Z M204.232652,105.089399 C207.791357,103.794136 211.726276,105.629019 213.021539,109.187725 L225.008531,142.121714 C226.303794,145.680419 224.468911,149.615338 220.910205,150.910601 C217.3515,152.205864 213.416581,150.370981 212.121318,146.812275 L200.134326,113.878286 C198.839063,110.319581 200.673946,106.384662 204.232652,105.089399 Z M205.600732,108.848169 C204.117938,109.387862 203.353404,111.027412 203.893097,112.510206 L215.880088,145.444195 C216.419781,146.926989 218.059331,147.691523 219.542125,147.151831 C221.024919,146.612138 221.789453,144.972588 221.24976,143.489794 L209.262769,110.555805 C208.723076,109.073011 207.083526,108.308477 205.600732,108.848169 Z M138.929456,103.752609 C142.695805,104.148468 145.428127,107.522605 145.032268,111.288954 L141.368794,146.144579 C140.972935,149.910928 137.598798,152.64325 133.832449,152.247391 C130.0661,151.851532 127.333778,148.477395 127.729637,144.711046 L131.393111,109.855421 C131.78897,106.089072 135.163107,103.35675 138.929456,103.752609 Z M138.511342,107.730697 C136.94203,107.565755 135.536139,108.704223 135.371198,110.273535 L131.707724,145.12916 C131.542783,146.698472 132.681251,148.104362 134.250563,148.269303 C135.819875,148.434245 137.225765,147.295777 137.390707,145.726465 L141.05418,110.87084 C141.219122,109.301528 140.080654,107.895638 138.511342,107.730697 Z M122.913293,113.878286 L110.926301,146.812275 C109.631038,150.370981 105.696119,152.205864 102.137414,150.910601 C98.578708,149.615338 96.7438252,145.680419 98.0390881,142.121714 L110.02608,109.187725 C111.321343,105.629019 115.256262,103.794136 118.814967,105.089399 C122.373673,106.384662 124.208556,110.319581 122.913293,113.878286 Z M117.446887,108.848169 C115.964093,108.308477 114.324543,109.073011 113.78485,110.555805 L101.797859,143.489794 C101.258166,144.972588 102.0227,146.612138 103.505494,147.151831 C104.988288,147.691523 106.627838,146.926989 107.167531,145.444195 L119.154522,112.510206 C119.694215,111.027412 118.929681,109.387862 117.446887,108.848169 Z" id="Combined-Shape" fill="#D8D8D8" fill-rule="nonzero"></path>
        </g>
    </g>
</svg>