<?xml version="1.0" encoding="UTF-8"?>
<svg width="36px" height="36px" viewBox="0 0 36 36" version="1.1" xmlns="http://www.w3.org/2000/svg" xmlns:xlink="http://www.w3.org/1999/xlink">
    <!-- Generator: Sketch 48 (47235) - http://www.bohemiancoding.com/sketch -->
    <title>release_36</title>
    <desc>Created with Sketch.</desc>
    <defs></defs>
    <g id="管理" stroke="none" stroke-width="1" fill="none" fill-rule="evenodd" transform="translate(-30.000000, -174.000000)">
        <g id="表单/选择/单行列表＋icon" transform="translate(0.000000, 148.000000)" fill="#2196F3" fill-rule="nonzero">
            <g id="-表单/选择/单行列表＋icon">
                <g id="release_36" transform="translate(30.000000, 26.000000)">
                    <path d="M16.5,16.5 L9.5,16.5 C8.67157288,16.5 8,17.1715729 8,18 C8,18.8284271 8.67157288,19.5 9.5,19.5 L16.5,19.5 L16.5,26.5 C16.5,27.3284271 17.1715729,28 18,28 C18.8284271,28 19.5,27.3284271 19.5,26.5 L19.5,19.5 L26.5,19.5 C27.3284271,19.5 28,18.8284271 28,18 C28,17.1715729 27.3284271,16.5 26.5,16.5 L19.5,16.5 L19.5,9.5 C19.5,8.67157288 18.8284271,8 18,8 C17.1715729,8 16.5,8.67157288 16.5,9.5 L16.5,16.5 Z M18,36 C8.0588745,36 0,27.9411255 0,18 C0,8.0588745 8.0588745,0 18,0 C27.9411255,0 36,8.0588745 36,18 C36,27.9411255 27.9411255,36 18,36 Z" id="发布报价（36*36）"></path>
                </g>
            </g>
        </g>
    </g>
</svg>