<?xml version="1.0" encoding="UTF-8"?>
<svg width="14px" height="14px" viewBox="0 0 14 14" version="1.1" xmlns="http://www.w3.org/2000/svg" xmlns:xlink="http://www.w3.org/1999/xlink">
    <!-- Generator: Sketch 46.2 (44496) - http://www.bohemiancoding.com/sketch -->
    <title>said_good_slice</title>
    <desc>Created with Sketch.</desc>
    <defs></defs>
    <g id="icon" stroke="none" stroke-width="1" fill="none" fill-rule="evenodd">
        <g id="Artboard" transform="translate(-240.000000, -360.000000)" fill-rule="nonzero" fill="#999999">
            <g id="said-good" transform="translate(240.000000, 360.000000)">
                <path d="M8.35179949,0 C7.59987147,0 6.94485861,0.515966387 6.80616967,1.24705882 C6.80616967,1.24705882 6.58226221,2.39159664 6.46529563,2.80336134 C6.27313625,3.48235294 5.59974293,4.23193277 5.11349614,4.47226891 C4.74588689,4.65546218 3.38071979,4.65714286 3.29550129,4.65714286 L1.43907455,4.65714286 C0.927763496,4.65714286 0.511696658,5.07394958 0.511696658,5.58991597 L0.511696658,13.0521008 C0.511696658,13.5663866 0.926092545,13.9848739 1.43907455,13.9848739 L9.99935733,13.9848739 C11.3762211,13.9848739 12.5458869,12.9714286 12.7497429,11.6016807 L13.466581,6.79831933 C13.635347,5.67058824 12.7664524,4.65714286 11.6318766,4.65714286 L9.5214653,4.65714286 C9.5214653,4.65714286 9.83393316,3.61344538 9.99434447,1.85042017 C10.0745501,0.957983193 9.44460154,0.105882353 8.5222365,0.0100840336 C8.46542416,0.00336134454 8.40861183,4.77675789e-16 8.35179949,4.77675789e-16 L8.35179949,0 Z M2.79998779,12.0482353 L2.79998779,6.58823529 L4.29998779,6.58823529 L4.29998779,12.0482353 L2.79998779,12.0482353 L2.79998779,12.0482353 Z" id="Shape"></path>
            </g>
        </g>
    </g>
</svg>