<?xml version="1.0" encoding="UTF-8"?>
<svg width="186px" height="186px" viewBox="0 0 186 186" version="1.1" xmlns="http://www.w3.org/2000/svg" xmlns:xlink="http://www.w3.org/1999/xlink">
    <!-- Generator: Sketch 48 (47235) - http://www.bohemiancoding.com/sketch -->
    <title>success_186</title>
    <desc>Created with Sketch.</desc>
    <defs></defs>
    <g id="认证成功" stroke="none" stroke-width="1" fill="none" fill-rule="evenodd" transform="translate(-282.000000, -228.000000)">
        <g id="success_186" transform="translate(282.000000, 228.000000)">
            <path d="M186,94.1481481 C186,41.6364444 144.363556,0 91.8518519,0 C41.6364444,0 0,41.6364444 0,94.1481481 C0,144.363556 41.6364444,186 91.8518519,186 C144.363556,186 186,144.363556 186,94.1481481 Z" id="Fill-" fill="#09BB07"></path>
            <path d="M46.8454367,99.1309653 C46.4613576,98.7334625 46.4095087,98.0581143 46.7463562,97.5997724 L50.9340602,91.9016439 C51.2634186,91.4534922 51.8849672,91.3619364 52.3234585,91.6980149 L77.235698,110.791818 C77.6736832,111.127508 78.3783653,111.108373 78.7923496,110.763491 L139.433531,60.2444817 C139.855261,59.8931466 140.517597,59.9248152 140.911618,60.3139492 L144.863079,64.2163988 C145.257674,64.6060997 145.261351,65.2332082 144.864636,65.6236355 L78.7396811,130.700468 C78.3459457,131.087963 77.7112645,131.075567 77.3313233,130.682347 L46.8454367,99.1309653 Z" id="Fill-" fill="#FFFFFF"></path>
        </g>
    </g>
</svg>