<?xml version="1.0" encoding="UTF-8"?>
<svg width="186px" height="186px" viewBox="0 0 186 186" version="1.1" xmlns="http://www.w3.org/2000/svg" xmlns:xlink="http://www.w3.org/1999/xlink">
    <!-- Generator: Sketch 48 (47235) - http://www.bohemiancoding.com/sketch -->
    <title>wait_for_186</title>
    <desc>Created with Sketch.</desc>
    <defs></defs>
    <g id="审核中1" stroke="none" stroke-width="1" fill="none" fill-rule="evenodd" transform="translate(-282.000000, -228.000000)">
        <g id="wait_for_186" transform="translate(282.000000, 228.000000)">
            <path d="M186,94.1481481 C186,41.6364444 144.363556,0 91.8518519,0 C41.6364444,0 0,41.6364444 0,94.1481481 C0,144.363556 41.6364444,186 91.8518519,186 C144.363556,186 186,144.363556 186,94.1481481 Z" id="Fill-" fill="#10AEFF"></path>
            <path d="M96.5395702,101.599919 L133.660525,126.719107 C134.117145,127.028095 134.260791,127.67092 133.988794,128.142032 L130.985824,133.343329 C130.710502,133.820201 130.087413,134.016008 129.58261,133.775187 L82.6047885,111.363985 C82.2577613,111.198432 81.9821426,110.944754 81.7911036,110.642473 C81.2883833,110.281242 80.974142,109.680644 81.0016735,109.001532 L83.8805142,37.9901293 C83.9026831,37.443296 84.3763189,37 84.9160521,37 L92.925257,37 C93.4749999,37 93.9390344,37.4533695 93.9607949,37.9901293 L96.5395702,101.599919 Z" id="Combined-Shape" fill="#FFFFFF"></path>
        </g>
    </g>
</svg>